<svg width="1446" height="599" viewBox="0 0 1446 599" fill="none" xmlns="http://www.w3.org/2000/svg">
<path d="M197.186 16.2842C210.93 15.3679 213.16 15.2569 224.638 15.9395L230.184 16.2803L231.359 16.3535L232.51 16.6035C237.709 17.7337 242.109 18.6375 246.099 20.2334C250.3 21.9137 253.811 24.2608 257.637 26.7363C262.805 30.0805 265.915 34.6108 267.844 37.8799C268.833 39.5558 269.701 41.2404 270.396 42.6035C270.963 43.7159 271.418 44.6189 271.869 45.4775L272.324 46.3281L272.713 47.04L273.025 47.7881C273.462 48.8388 273.761 49.4235 274.32 50.5996C274.867 51.7511 275.681 53.5134 276.325 55.8037C277.532 60.0951 277.717 64.811 277.717 70.75V71.2715L277.682 71.792C277.274 77.8486 276.977 82.0926 276.294 85.5947C275.516 89.5881 274.208 92.6505 273.184 95.3145L272.29 97.6387L270.713 99.5654C268.844 101.849 267.053 104.138 265.43 105.915C263.404 108.134 261.444 109.839 258.838 111.902L258.663 112.041L258.484 112.175C256.372 113.75 253.988 115.67 249.607 117.929C245.744 119.92 240.314 122.205 231.335 125.696L229.703 126.33L227.972 126.585C218.231 128.018 213.47 128.406 209.17 129.579C206.343 130.35 204.899 131.186 203.401 132.857C198.007 140.37 195.101 145.452 192.228 156.614L192.2 156.719L192.172 156.823C191.279 160.104 190.75 161.926 190.321 163.487L219.572 159.399L219.866 159.358L220.163 159.328C238.374 157.494 257.072 162.814 264.32 166.227L265.498 166.782L266.569 167.526C271.699 171.095 277.633 175.093 281.735 179.286C284.759 182.378 287.496 186.28 288.879 191.035C290.995 193.281 292.698 195.881 294.042 198.77C296.103 203.198 297.327 208.335 298.274 213.572L298.663 215.821L298.747 216.321L298.798 216.826C298.857 217.409 298.916 217.993 298.975 218.576C299.034 219.159 299.092 219.742 299.151 220.324C299.854 227.309 299.912 234.009 298.846 239.995C297.796 245.887 295.377 252.599 289.819 257.643L289.654 257.792L289.485 257.938C287.355 259.761 284.819 261.179 281.943 261.973C279.114 262.753 276.51 262.778 274.395 262.53C272.932 262.359 271.648 262.049 270.622 261.746C266.942 263.64 263.135 264.734 260.017 265.52C254.791 266.837 247.973 268.053 240.662 269.468L240.4 269.519L240.134 269.561L196.75 276.41L198.189 312.724C198.721 318.497 201.008 331.722 203.981 349.586C206.908 367.177 210.315 388.292 212.613 407.95C214.457 423.727 214.437 442.491 212.318 460.391C210.228 478.038 205.932 496.286 198.311 510.197L196.737 513.071L194.132 515.062C189.598 518.53 185.522 521.477 179.053 523.45C174.159 524.943 167.434 525.935 158.389 527.518L157.063 527.75H155.717C142.453 527.75 131.493 524.367 122.631 517.887C114.018 511.589 108.653 503.279 104.854 495.682L103.376 492.729L103.232 489.43L100.745 432.744L96.7991 386.383L85.2991 296.935L66.5286 299.144L63.9553 299.446L61.4241 298.896C54.3144 297.351 48.9708 295.24 44.5208 292.76C40.6246 290.588 36.9228 287.71 35.8596 286.97L35.7063 286.863L35.5549 286.752C29.231 282.117 23.4005 275.275 19.3538 267.182L18.425 265.325L18.0178 263.29C17.5142 260.772 17.1566 258.998 16.8293 256.201C16.5445 253.766 16.2674 250.424 15.7717 244.555L15.6086 242.618L15.928 240.702C18.0153 228.178 18.1154 228.757 19.6135 222.265L20.4075 218.824L22.6135 216.067C24.1356 214.165 24.7901 213.082 26.1877 211.035C27.6731 208.86 29.4548 206.466 32.3772 203.67C34.6705 201.379 36.9775 199.24 40.6887 197.051C43.704 195.272 47.6277 193.492 52.803 191.14L53.7854 190.692L54.8206 190.387L79.4368 183.105C80.434 135.045 82.7306 98.324 104.741 67.1523L104.744 67.1484C115.68 51.6729 128.341 40.1006 143.821 31.8037C159.135 23.5954 176.462 18.9946 196.183 16.3838L196.683 16.3174L197.186 16.2842Z" fill="#EFE091" stroke="#2A2229" stroke-width="31"/>
<path d="M331.902 88.6631C341.004 86.4822 350.321 87.0209 362.136 89.3281L363.287 89.5576L363.403 89.581L363.518 89.6055C379.264 93.038 388.248 99.4283 393.829 107.24C396.024 110.313 402.138 118.21 404.563 126.296C408.536 139.537 406.544 149.349 403.195 161.239L314.735 507.586L314.686 507.775L314.634 507.964C312.483 515.576 308.586 523.12 303.821 529.541C299.15 535.837 292.96 541.967 285.592 545.882L285.593 545.883C285.558 545.902 285.521 545.92 285.486 545.938C285.467 545.949 285.447 545.96 285.428 545.971L285.427 545.97C270.884 553.759 253.588 552.684 239.215 549.35L239.205 549.347L239.195 549.345C220.181 544.909 210.342 528.917 205.52 519.507C197.721 505.259 201.326 492.042 204.245 481.736L294.695 125.932L294.748 125.723L294.807 125.516C299.042 110.601 306.995 104.548 311.443 100.08L312.984 98.5332L314.893 97.4717C319.373 94.9793 323.735 92.5526 327.979 90.1914L329.837 89.1582L331.902 88.6631Z" fill="#EFE091" stroke="#2A2229" stroke-width="31"/>
<path d="M916.848 239.75L917.494 239.756L918.139 239.816C955.018 243.212 973.956 247.214 988.438 264.017L989.124 264.827L989.71 265.531L990.21 266.298C995.141 273.878 999.223 282.064 1002.85 289.336C1006.62 296.903 1009.91 303.519 1013.68 309.415C1019.88 319.143 1023.4 333.312 1025.55 349.621C1027.78 366.468 1028.8 387.702 1028.71 413.11V413.117C1028.54 457.299 1022.61 495.955 1001.55 523.634L1000.87 524.532L1000.07 525.321C974.196 550.672 938.672 578.979 883.711 575.745C842.471 575.39 809.258 554.1 785.961 524.14L785.897 524.058C775.742 510.815 767.882 497.229 762.681 480.75C757.522 464.404 755.217 445.962 755.217 423.25C755.217 380.416 766.036 330.584 790.238 295.592L790.342 295.443L790.448 295.295C817.276 258.392 869.044 239.942 914.68 239.746L916.848 239.75ZM912.84 354.98C903.543 357.099 899.002 359.24 896.115 361.253C893.029 363.406 890.681 366.153 886.251 372.189C879.429 384.297 875.98 389.993 873.346 396.189C871.011 401.68 869.289 407.749 867.218 419.6C867.982 431.958 868.327 437.731 869.407 442.099C870.116 444.964 871.123 447.207 874.66 451.193C875.845 452.066 876.93 452.874 877.911 453.608C879.269 454.623 880.379 455.452 881.394 456.188C883.455 457.682 884.593 458.393 885.434 458.82C886.356 459.287 887.657 459.914 893.217 459.914C900.522 459.914 902.526 459.154 903.655 458.59C905.542 457.648 907.485 456.01 913.729 450.293C923.182 439.908 928.227 427.93 930.357 412.174L930.437 411.584L930.561 411.002C931.139 408.302 931.32 406.595 931.573 404.439C931.787 402.624 932.055 400.475 932.68 397.861C932.228 372.724 932.073 369.466 931.183 366.268C929.602 362.966 928.282 360.913 926.161 358.374C925.66 358.115 925.242 357.894 924.914 357.72C924.094 357.284 923.886 357.191 923.545 357.067C922.601 356.723 920.13 356.015 912.84 354.98Z" fill="#EFE091" stroke="#2A2229" stroke-width="31"/>
<path d="M736.139 202.715C759.677 191.682 782.155 183.06 806.913 185.728L808.094 185.864L809.699 186.06L811.23 186.583C832.655 193.904 846.399 208.989 855.337 224.878C863.584 239.539 868.131 255.557 871.162 268.251L871.749 270.745L871.946 271.596L872.047 272.463C872.855 279.424 873.52 286.645 873.858 292.607C874.026 295.567 874.125 298.408 874.099 300.836C874.083 302.334 874.055 305.856 873.092 309.106C871.7 313.979 869.773 319.59 867.261 324.775C864.93 329.585 861.221 335.909 855.467 340.188L855.395 340.242L855.321 340.294C852.786 342.134 847.971 345.662 842.752 348.624C840.129 350.114 837.041 351.674 833.772 352.836C831.146 353.77 827.568 354.754 823.565 354.777C817.171 355.57 811.109 355.201 805.054 353.458C798.767 351.648 793.256 348.572 788.119 345.147L786.842 344.295L785.757 343.21C776.395 333.849 770.775 322.457 766.607 311.344C753.861 321.441 742.244 337.182 737.617 354.438L767.865 493.966L767.956 494.387L768.024 494.814C769.296 502.803 767.276 511.243 764.665 517.829C761.946 524.686 757.661 531.872 752.031 537.354C742.198 546.935 727.315 551.425 714.195 553.55L714.189 553.551C695.281 556.605 680.499 544.437 677.428 542.651L675.684 541.636L674.257 540.21C667.78 533.733 663.588 526.981 659.937 515.417L659.716 514.72L659.563 514.004L608.563 276.504L608.509 276.254L608.464 276.003C607.153 268.743 608.546 261.109 610.599 255.081C612.615 249.159 615.99 242.666 620.867 237.681C628.929 228.44 640.703 221.929 654.52 219.487C668.859 216.953 680.797 220.772 689.258 225.175L690.065 225.603L691.845 226.56L693.318 227.942C694.465 229.017 695.446 229.913 696.31 230.694C709.154 218.93 721.924 209.378 736.139 202.715Z" fill="#EFE091" stroke="#2A2229" stroke-width="31"/>
<path d="M534.086 200.751C543.804 201.889 551.112 204.352 559.055 206.262L560.653 206.636L562.476 207.05L564.149 207.887C568.88 210.252 573.287 212.41 576.841 214.458C580.496 216.563 584.182 219.063 587.46 222.583C590.615 225.868 592.963 229.64 594.399 231.927C595.973 234.435 596.795 235.722 597.514 236.612L597.818 236.97L600.865 240.408L601.546 244.951C601.695 245.946 601.841 246.406 602.346 248.723C602.799 250.801 603.286 253.382 603.546 256.744C604.016 262.824 603.674 270.616 601.952 282.356C604.358 294.055 606.251 301.051 608.696 311.101C611.278 321.71 614.271 334.944 618.702 359.043C631.607 392.684 645.596 410.945 656.817 426.293C664.498 435.037 669.712 443.671 671.423 454.612L671.581 455.702L671.717 456.721L671.717 457.75C671.717 469.469 669.695 477.655 665.962 486.36L665.192 488.154L664.002 489.701C659.615 495.405 652.459 505.631 639.939 510.946L638.916 511.389C633.797 513.569 628.649 515.241 622.857 515.323C617.224 515.403 612.139 513.888 608.198 512.724C600.178 510.785 591.933 507.951 584.083 503.537C560.37 522.592 541.073 535.583 521.76 539.449L521.68 539.464L521.601 539.479C472.27 548.822 433.218 539.878 403.664 518.834L402.732 518.171L401.908 517.377C373.149 489.704 361.69 462.191 347.994 420.598L347.73 419.795L347.555 418.969C334.963 359.667 345.939 309.891 377.692 266.862C397.97 238.643 421.765 220.02 448.677 209.567C475.473 199.16 504.295 197.262 534.086 200.751ZM491.74 310.136C490.415 310.733 488.732 311.489 486.995 312.259C481.832 316.022 479.047 318.36 476.713 320.736C474.284 323.209 472.017 326.044 468.061 331.295C462.477 343.152 459.23 349.224 457.393 357.089C455.644 364.579 455.149 374.408 457.957 392.379C462.659 413.808 468.312 420.892 470.98 423.603L471.476 424.092L472.584 425.161L473.461 426.427C476.373 430.632 478.446 432.823 482.245 435.082C483.845 435.445 484.995 435.751 485.839 435.976C485.874 435.985 485.908 435.994 485.941 436.002C486.184 435.983 486.524 435.953 486.983 435.905C488.701 435.728 491.144 435.422 495.311 434.919C506.016 433.545 507.185 431.675 518.931 424.731C519.34 424.309 519.768 423.79 520.708 422.631C521.732 421.369 523.066 419.723 525.079 417.361C515.108 389.286 506.639 366.849 500.792 348.341C496.475 334.678 493.288 322.291 491.74 310.136Z" fill="#EFE091" stroke="#2A2229" stroke-width="31"/>
<path d="M1259.05 210.34C1277.23 208.375 1288.23 207.7 1296.73 208.988C1305.27 210.283 1311.71 213.907 1316.83 216.273C1326.43 219.41 1333.74 223.829 1339.93 229.673C1345.65 235.087 1350.04 241.436 1354 247.247C1360.02 254.255 1365.11 263.998 1369.86 276.286C1374.86 289.205 1379.88 306.041 1385.17 327.659L1422.56 452.296L1422.67 452.641L1422.75 452.991C1425.44 463.741 1428.93 475.55 1430.08 484.202L1430.31 485.923L1430.15 487.653C1429.79 491.669 1429.86 497.632 1426.7 505.282C1425.03 510.118 1423.28 515.336 1419.93 519.8C1416.69 524.121 1412.04 527.48 1408.32 530.415L1407.54 531.031L1406.69 531.541C1403.25 533.609 1400.48 535.294 1397.53 536.626C1394.55 537.976 1391.51 538.897 1387.84 540.044L1386.48 540.469L1385.06 540.639C1377.14 541.59 1368.04 541.239 1359.7 539.591C1352.02 538.073 1342.44 534.96 1335.63 528.417L1335.15 527.955C1325.12 518.296 1316.92 501.504 1314.1 486.248L1285.31 384.989L1285.18 384.554L1285.09 384.113C1283.53 377.122 1283.09 375.186 1282.71 373.856C1282.55 373.305 1282.4 372.827 1282.04 371.774C1281.69 370.717 1281.19 369.246 1280.47 367.012C1277.28 357.152 1277.16 356.603 1276.01 353.152C1275.59 351.88 1275.16 350.693 1274.65 349.297C1274.16 347.944 1273.59 346.379 1273.01 344.652L1272.91 344.332L1272.81 344.008C1272.1 341.525 1271.92 341.488 1270.33 337.506C1269.97 336.63 1269.82 336.319 1269.69 336.068C1269.59 335.883 1269.46 335.64 1269.22 335.222C1268.93 334.718 1268.72 334.365 1268.27 333.577C1267.78 332.727 1267.39 332.013 1267.04 331.377C1265.87 332.257 1264.52 333.274 1262.89 334.494C1260.46 336.873 1256.8 340.176 1253.43 343.283C1251.09 345.439 1248.66 347.715 1246.29 350.025C1246.31 350.099 1246.32 350.173 1246.33 350.248C1246.99 353.979 1247.8 358.591 1248.4 362.517L1279.16 474.649L1279.42 475.563L1279.55 476.5C1280.48 482.799 1281.94 489.118 1283.5 496.229C1284.99 503.005 1286.57 510.586 1287.17 518.014L1287.29 519.597L1287.1 521.172C1286.13 528.942 1284.79 538.149 1281.3 545.735C1278.96 550.794 1274.67 556 1270.09 560.316C1265.28 564.857 1258.97 569.523 1251.63 572.861C1247.44 574.767 1242.46 575.6 1238.85 575.997C1234.93 576.426 1230.51 576.557 1226.68 576.173L1226.4 576.145L1226.12 576.108C1213.26 574.354 1200.44 570.223 1189.85 559.8L1189.79 559.741L1189.73 559.681C1183.46 553.375 1179.54 544.39 1177.03 536.986C1174.41 529.256 1172.59 521.022 1171.48 514.103L1163.14 474.878L1152.75 436.28L1152.57 435.619L1152.45 434.944C1151.09 427.217 1150.29 426.759 1147.35 415.652C1144.23 406.121 1143.73 402.692 1141.68 394.509C1139.72 386.673 1139.31 385.741 1137.04 374.408C1132.48 382.314 1129.17 387.646 1126.28 392.246C1124.03 395.831 1122.13 398.826 1120.09 402.259C1121.73 420.965 1124.39 455.791 1127.05 474.005C1129.94 493.736 1133.41 499.101 1138.75 520.491L1139.4 523.06L1139.15 525.697C1137.43 543.998 1130.28 562.654 1113.62 572.791C1109.02 575.913 1105.06 578.07 1100.17 579.566C1096.16 580.795 1091.22 581.575 1086.7 582.46L1085.22 582.75H1083.72C1077.24 582.75 1072.12 582.377 1067.05 580.8C1062.87 579.501 1058.4 577.084 1055.62 575.775L1053.44 574.751L1051.68 573.117C1045.85 567.716 1032.04 556.224 1026.51 539.652L1026.04 538.235L1025.85 536.754L1010.86 421.872L1010.68 420.642C1009.43 412.893 1003.7 381.605 997.901 349.687C994.842 332.86 991.802 316.065 989.489 302.954C987.294 290.517 985.484 279.972 985.258 276.881L985.115 274.915L985.467 272.977C986.566 266.935 989.885 261.436 992.016 258.142C994.242 254.702 997.3 250.603 998.519 248.862L1000.02 246.717L1002.14 245.184C1006.53 242.015 1010.07 239.52 1014.49 237.628C1018.26 236.013 1022.81 234.846 1027.88 233.37L1028.93 233.062L1030.02 232.906C1035.02 232.192 1039.03 231.625 1043.09 231.625C1046.74 231.625 1050.12 232.08 1053.96 232.676L1055.63 232.94L1057.82 233.285L1059.82 234.225C1063.8 236.1 1067.33 237.751 1070.36 239.625C1073.86 241.788 1076.44 244.048 1079.18 246.789L1079.78 247.397L1080.32 248.067C1082.9 251.286 1085.31 254.668 1087.56 258.389C1089.25 256.525 1090.96 254.685 1092.68 252.941C1100.71 244.766 1111.93 234.988 1125.18 231.778L1125.81 231.629C1143.54 227.629 1158.58 225.595 1172.7 228.35C1182.69 230.297 1191.29 234.437 1199.55 240.326C1206.71 233.488 1212.9 228.747 1220.07 224.937C1229.3 220.035 1240.56 216.669 1255.35 211.209L1257.15 210.545L1259.05 210.34Z" fill="#EFE091" stroke="#2A2229" stroke-width="31"/>
</svg>
